<?xml version="1.0" encoding="utf-8"?>
<!-- Generator: Adobe Illustrator 25.0.0, SVG Export Plug-In . SVG Version: 6.00 Build 0)  -->
<svg version="1.1" id="Layer_1" xmlns="http://www.w3.org/2000/svg" xmlns:xlink="http://www.w3.org/1999/xlink" x="0px" y="0px"
	 viewBox="0 0 1200 800" style="enable-background:new 0 0 1200 800;" xml:space="preserve">
<style type="text/css">
	.st0{fill:#F4EAEA;}
	.st1{fill:#F7F9F7;}
	.st2{font-family:'Bristone';}
	.st3{font-size:73px;}
</style>
<path class="st0" d="M222.1,412.8h-61.8v-15.3H240c-2.1-6.5-8.8-12.5-20.7-12.5h-57.8c-13.2,0-20.9,4.9-20.9,15.6V412
	c0,9.3,7.9,14.6,19.5,14.6h62.5v16.3h-84.1c2.1,8.8,8.8,13.5,20.9,13.5h62.9c13.2,0,19.7-5.1,19.7-16V429
	C242,418.8,234.4,413.5,222.1,412.8z M348.2,385.1H272v71.3h21.6V429h56.2c15.6,0,24.2-5.3,24.2-17.9v-7.9
	C373.7,391.6,363.9,385.1,348.2,385.1z M355.1,407.9c0,5.1-0.9,7.9-9.3,7.9h-52.2l0.2-18.6h51.1c9.3,0,10.4,2.8,10.4,7.7v3H355.1z
	 M445.7,428.6h-46l-11.4,12.1h66.4l11.4,15.8h25.5l-55-74.3l-13,16L445.7,428.6z M533,397.4h80.8c-2.1-8.4-10.2-12.5-21.8-12.5
	h-60.4c-10.4,0-20.4,4.2-20.4,15.6v39.9c0,11.4,10,15.6,20.4,15.6h61.1c13.9,0,18.8-3.9,21.1-13.5H533V397.4z M708.6,421.1V409
	h-65.3v47.4h96.4V443h-74.5v-21.8h43.4L708.6,421.1L708.6,421.1z M645.6,385.1h97.3v12.5h-97.3V385.1z M802.8,385.1h-33.9l39.9,29.3
	c5.8-3.9,12.5-8.1,18.6-11.6L802.8,385.1z M852.1,421.6c-5.8,3.9-11.6,8.4-17.2,12.5l30.2,22.1h34.1L852.1,421.6z"/>
<path class="st0" d="M1061.5,343.6c-185.8,10.7-271.7,90.1-291,108.9l-3.9,3.7H801C893.9,363.1,1027.4,346.6,1061.5,343.6z"/>
<text transform="matrix(1 0 0 1 138.5 605.3438)" class="st1 st2 st3">community</text>
</svg>
